<svg width="18" height="18" viewBox="0 0 18 18" fill="none" xmlns="http://www.w3.org/2000/svg">
<path d="M17.996 17.9992V17.9984H18.0005V11.3969C18.0005 8.16744 17.3052 5.67969 13.5297 5.67969C11.7147 5.67969 10.4967 6.67569 9.99945 7.61994H9.94695V5.98119H6.36719V17.9984H10.0947V12.0479C10.0947 10.4812 10.3917 8.96619 12.332 8.96619C14.2437 8.96619 14.2722 10.7542 14.2722 12.1484V17.9992H17.996Z" fill="white"/>
<path d="M0.296875 5.98438H4.02888V18.0016H0.296875V5.98438Z" fill="white"/>
<path d="M2.1615 0C0.96825 0 0 0.96825 0 2.1615C0 3.35475 0.96825 4.34325 2.1615 4.34325C3.35475 4.34325 4.323 3.35475 4.323 2.1615C4.32225 0.96825 3.354 0 2.1615 0V0Z" fill="white"/>
</svg>
