<svg width="18" height="13" viewBox="0 0 18 13" fill="none" xmlns="http://www.w3.org/2000/svg">
<path d="M9 0C9.03603 3.97473e-06 14.6389 0.0015008 16.043 0.385742C16.8137 0.593424 17.4213 1.20087 17.6289 1.97168C18.0145 3.38012 18 6.31641 18 6.31641C18 6.33769 17.9982 9.24206 17.6289 10.6455C17.4213 11.4164 16.814 12.0249 16.043 12.2324C14.6365 12.6027 9.01668 12.6025 9 12.6025C9 12.6025 3.3803 12.6033 1.95703 12.2178C1.186 12.0101 0.578752 11.4018 0.371094 10.6309C0.00261305 9.24527 1.26186e-05 6.33576 0 6.30176C0 6.30176 0.000444037 3.38012 0.371094 1.97168C0.578707 1.20096 1.2011 0.578588 1.95703 0.371094C3.36561 0.000306708 9 0 9 0ZM7.20605 9L11.8916 6.30176L7.20605 3.60352V9Z" fill="white"/>
</svg>
